g Terror_Nun_Yustina_Halo
v 0.04268881 -0.1085998 0.07817113
v 0.04456814 -0.1137807 0.08251823
v 0.07392506 -0.1044657 0.07470201
v 0.04268881 -0.1060671 0.08118935
v 0.04456814 -0.1112479 0.08553645
v 0.07392506 -0.1019327 0.07772022
v 0.07048459 -0.09736778 0.07388982
v 0.07048459 -0.09990049 0.07087132
v 0.08085196 -0.08330952 0.06209345
v 0.08085196 -0.08584224 0.05907495
v 0.09821769 -0.07908521 0.05854918
v 0.09821769 -0.08161793 0.05553068
v 0.1045462 -0.08646642 0.05959903
v 0.1045462 -0.0839337 0.06261753
v 0.1049033 -0.06444702 0.04112248
v 0.1280423 -0.06300952 0.0399161
v 0.1280423 -0.0604768 0.0429346
v 0.1049033 -0.0619143 0.04414098
v 0.0922686 -0.0770604 0.05170651
v 0.0922686 -0.07452768 0.05472472
v 0.1058782 0.0802294 -0.08187145
v 0.07542439 0.08150782 -0.08294369
v 0.0929251 0.07122126 -0.07431216
v 0.0929251 0.07375398 -0.07129394
v 0.07542467 0.08404054 -0.07992548
v 0.1058782 0.08276212 -0.07885295
v 0.08343089 0.09342386 -0.09294268
v 0.08343089 0.09595656 -0.08992447
v -0.1093481 0.08585747 -0.06990039
v -0.09212191 0.08102997 -0.06584964
v -0.07057129 0.09369723 -0.07647848
v -0.1093481 0.08839019 -0.0668819
v -0.09212191 0.08356269 -0.06283114
v -0.07057129 0.09622996 -0.07346027
v -0.0792533 0.107749 -0.08312604
v -0.0792533 0.1052163 -0.08614425
v -0.05924737 0.1070091 -0.08250499
v -0.0493414 0.1170472 -0.0909278
v -0.0493414 0.1145145 -0.09394602
v -0.05924737 0.1044764 -0.08552349
v -0.04681662 0.1037674 -0.07978453
v -0.04681662 0.1012344 -0.08280275
v -0.119965 -0.06011041 0.03882033
v -0.1308483 -0.03998197 0.02193074
v -0.1497734 -0.03944316 0.0214787
v -0.119965 -0.05757769 0.04183882
v -0.1308483 -0.03744926 0.02494895
v -0.1497734 -0.03691044 0.0244972
v -0.135002 -0.06676109 0.04440103
v -0.135002 -0.06422837 0.04741953
v -0.103536 -0.07397895 0.05560102
v -0.103536 -0.07651166 0.05258252
v -0.1158139 -0.08338495 0.06349352
v -0.1158139 -0.08591767 0.0604753
v 0.1331811 -0.04683457 0.03780282
v 0.1260614 -0.02571896 0.02008486
v 0.1172163 -0.04207739 0.03381133
v 0.1172163 -0.03954468 0.03682955
v 0.1260614 -0.02318625 0.02310309
v 0.1331811 -0.04430185 0.04082131
v 0.1428316 -0.02898702 0.02282715
v 0.1428316 -0.02645431 0.02584536
v 0.1302593 0.0008250624 0.002955079
v 0.1302593 -0.001707658 -6.313622E-05
v 0.1475888 -0.001780257 -2.160668E-06
v 0.1475888 0.0007524639 0.003016055
v 0.1443462 0.01676519 -0.01556371
v 0.1443462 0.01929791 -0.01254521
v 0.128061 0.01140597 -0.0110666
v 0.128061 0.01393868 -0.008048385
v -0.1130053 0.04744704 -0.04495609
v -0.1361068 0.03918388 -0.03802267
v -0.1236395 0.02777915 -0.02845275
v -0.1236395 0.03031187 -0.02543453
v -0.1361068 0.04171659 -0.03500417
v -0.1130053 0.04997975 -0.04193787
v -0.1280422 0.05663043 -0.04751858
v -0.1280422 0.05409771 -0.0505368
v -0.09849524 0.06193294 -0.05711147
v -0.09849524 0.06446566 -0.05409297
v -0.1155561 0.06656307 -0.06099661
v -0.1155561 0.06909578 -0.05797812
v -0.06178945 -0.1044699 0.0825171
v -0.03361678 -0.0991348 0.07804067
v -0.05985112 -0.0908104 0.07105537
v -0.05985112 -0.08827768 0.07407387
v -0.03361678 -0.0966021 0.0810589
v -0.06178945 -0.1019372 0.08553532
v -0.0382662 -0.1119337 0.08878012
v -0.0382662 -0.1094009 0.09179862
v -1.043081E-07 -0.1000241 0.08393049
v -1.043081E-07 -0.1025569 0.08091199
v -1.043081E-07 -0.115793 0.0920184
v -1.043081E-07 -0.1132603 0.09503661
v 0.0363756 -0.1067293 0.08441317
v 0.03826627 -0.1119337 0.08878012
v 0.03826627 -0.1094009 0.09179862
v 0.0363756 -0.1041965 0.08743139
v 0.01959434 -0.1005624 0.07923827
v 0.01959434 -0.09802967 0.08225676
v 0.142814 0.02678035 -0.02761474
v 0.1130053 0.04744704 -0.04495609
v 0.126041 0.02333732 -0.02472585
v 0.126041 0.02587004 -0.02170734
v 0.1130053 0.04997975 -0.04193787
v 0.142814 0.02931307 -0.02459653
v 0.1280423 0.05409771 -0.0505368
v 0.1280423 0.05663043 -0.04751858
v 0.09833226 0.06462872 -0.05422994
v 0.09833226 0.062096 -0.05724816
v 0.1106099 0.07403389 -0.06212189
v 0.1106099 0.07150117 -0.06514011
v 0.06481285 0.09543477 -0.08522289
v 0.03361686 0.09406959 -0.08407719
v 0.0616449 0.08517659 -0.07661517
v 0.0616449 0.08770929 -0.07359667
v 0.03361686 0.09660259 -0.08105898
v 0.06481285 0.09796749 -0.08220439
v 0.03826627 0.1068684 -0.09481663
v 0.03826627 0.1094011 -0.09179841
v -1.043081E-07 0.1000252 -0.08393115
v -1.043081E-07 0.09749247 -0.08694965
v -1.043081E-07 0.1107278 -0.09805491
v -1.043081E-07 0.1132605 -0.09503669
v -0.03311966 0.1078054 -0.09560274
v -0.03311966 0.1103381 -0.09258452
v -0.03361678 0.09406959 -0.08407719
v -0.03361678 0.09660259 -0.08105898
v -0.1479392 -0.002532333 -0.003018677
v -0.1260409 0.02333732 -0.02472585
v -0.1428139 0.02678035 -0.02761474
v -0.1428139 0.02931307 -0.02459653
v -0.1260409 0.02587004 -0.02170734
v -0.1479392 3.874302E-07 -1.788139E-07
v -0.1305641 1.043081E-07 -1.788139E-07
v -0.1305641 -0.002532616 -0.003018394
v -0.1436451 -0.02767203 0.01807623
v -0.1436451 -0.02513932 0.02109472
v -0.1268729 -0.02422928 0.01518732
v -0.1268729 -0.02169657 0.01820582
v -0.06734151 -0.08165111 0.0759912
v -0.09017026 -0.06823262 0.06473166
v -0.1021688 -0.07780283 0.072762
v -0.06734151 -0.07911839 0.07900941
v -0.09017026 -0.06569991 0.06774987
v -0.1021688 -0.07527012 0.07578021
v -0.07630257 -0.09300706 0.08551972
v -0.07630257 -0.09047434 0.08853793
vt 0.2597798 0.1140983
vt 0.274684 0.06056497
vt 0.5032148 0.1552188
vt 0.2597798 0.1140983
vt 0.274684 0.06056497
vt 0.5032148 0.1552188
vt 0.4753907 0.2034076
vt 0.4753907 0.2034076
vt 0.5482605 0.3288547
vt 0.5482605 0.3288547
vt 0.6588904 0.346366
vt 0.6588904 0.346366
vt 0.6994604 0.3058104
vt 0.6994604 0.3058104
vt 0.6853239 0.4686266
vt 0.8500231 0.5020561
vt 0.8500231 0.5020561
vt 0.6853239 0.4686266
vt 0.6207681 0.3844883
vt 0.6207681 0.3844883
vt 0.6994604 0.3058104
vt 0.4475667 0.2515963
vt 0.6207681 0.3844883
vt 0.6207681 0.3844883
vt 0.4475667 0.2515963
vt 0.6994604 0.3058104
vt 0.5032148 0.1552188
vt 0.5032148 0.1552188
vt 0.6994604 0.3058104
vt 0.6207681 0.3844883
vt 0.4475667 0.2515963
vt 0.6994604 0.3058104
vt 0.6207681 0.3844883
vt 0.4475667 0.2515963
vt 0.5032148 0.1552188
vt 0.5032148 0.1552188
vt 0.3750012 0.1614036
vt 0.274684 0.06056497
vt 0.274684 0.06056497
vt 0.3750012 0.1614036
vt 0.2953384 0.1885324
vt 0.2953384 0.1885324
vt 0.7536601 0.5576897
vt 0.8371902 0.7593813
vt 0.9446769 0.7306013
vt 0.7536601 0.5576897
vt 0.8371902 0.7593813
vt 0.9446769 0.7306013
vt 0.8500231 0.5020561
vt 0.8500231 0.5020561
vt 0.6207681 0.3844883
vt 0.6207681 0.3844883
vt 0.6994604 0.3058104
vt 0.6994604 0.3058104
vt 0.8973572 0.6163214
vt 0.8371902 0.7593813
vt 0.7954178 0.6585428
vt 0.7954178 0.6585428
vt 0.8371902 0.7593813
vt 0.8973572 0.6163214
vt 0.9446769 0.7306013
vt 0.9446769 0.7306013
vt 0.8661584 0.9758034
vt 0.8661584 0.9758034
vt 0.977498 0.9758179
vt 0.977498 0.9758179
vt 0.9610875 0.8532096
vt 0.9610875 0.8532096
vt 0.8516743 0.8675923
vt 0.8516743 0.8675923
vt 0.7536601 0.5576897
vt 0.9017025 0.6268225
vt 0.8217935 0.7222295
vt 0.8217935 0.7222295
vt 0.9017025 0.6268225
vt 0.7536601 0.5576897
vt 0.8500231 0.5020561
vt 0.8500231 0.5020561
vt 0.6207681 0.3844883
vt 0.6207681 0.3844883
vt 0.6994604 0.3058104
vt 0.6994604 0.3058104
vt 0.3889494 0.1078847
vt 0.2448902 0.1676317
vt 0.3462357 0.2096213
vt 0.3462357 0.2096213
vt 0.2448902 0.1676317
vt 0.3889494 0.1078847
vt 0.274684 0.06056497
vt 0.274684 0.06056497
vt 0.02945304 0.1390111
vt 0.02945304 0.1390111
vt 0.02943855 0.02827982
vt 0.02943855 0.02827982
vt 0.2597798 0.1140983
vt 0.274684 0.06056497
vt 0.274684 0.06056497
vt 0.2597798 0.1140983
vt 0.2448902 0.1676317
vt 0.2448902 0.1676317
vt 0.9446769 0.7306013
vt 0.7536601 0.5576897
vt 0.8371902 0.7593813
vt 0.8371902 0.7593813
vt 0.7536601 0.5576897
vt 0.9446769 0.7306013
vt 0.8500231 0.5020561
vt 0.8500231 0.5020561
vt 0.6207681 0.3844883
vt 0.6207681 0.3844883
vt 0.6994604 0.3058104
vt 0.6994604 0.3058104
vt 0.5032148 0.1552188
vt 0.2448902 0.1676317
vt 0.4475667 0.2515963
vt 0.4475667 0.2515963
vt 0.2448902 0.1676317
vt 0.5032148 0.1552188
vt 0.274684 0.06056497
vt 0.274684 0.06056497
vt 0.02945304 0.1390111
vt 0.02945304 0.1390111
vt 0.02943855 0.02827982
vt 0.02943855 0.02827982
vt 0.274684 0.06056497
vt 0.274684 0.06056497
vt 0.2448902 0.1676317
vt 0.2448902 0.1676317
vt 0.977498 0.9758179
vt 0.8371902 0.7593813
vt 0.9446769 0.7306013
vt 0.9446769 0.7306013
vt 0.8371902 0.7593813
vt 0.977498 0.9758179
vt 0.8661584 0.9758034
vt 0.8661584 0.9758034
vt 0.9446769 0.7306013
vt 0.9446769 0.7306013
vt 0.8371902 0.7593813
vt 0.8371902 0.7593813
vt 0.4475667 0.2515963
vt 0.6207681 0.3844883
vt 0.6994604 0.3058104
vt 0.4475667 0.2515963
vt 0.6207681 0.3844883
vt 0.6994604 0.3058104
vt 0.5032148 0.1552188
vt 0.5032148 0.1552188
vn -0.7292476 -0.1006268 -0.6768103
vn -0.3601975 -0.9324538 0.02806662
vn 0.3661866 -0.9226905 -0.120622
vn -0.7292476 0.6491891 0.2162209
vn -0.3601975 -0.198259 0.9115652
vn 0.3661866 -0.04985797 0.9292048
vn -0.4070611 0.8600749 0.3075263
vn -0.4070611 -0.1533481 -0.9004363
vn -0.4871196 0.8678855 0.09741303
vn -0.4871196 0.05363226 -0.8716869
vn -0.291855 0.6667629 0.6857462
vn -0.291855 -0.5594984 -0.7757462
vn 0.5184929 -0.8348215 -0.1850359
vn 0.5184929 0.03801107 0.8542367
vn -0.3719134 0.1219748 -0.9202188
vn 0.7352365 -0.04595268 -0.6762511
vn 0.7352365 0.6589524 0.1587735
vn -0.3719134 0.9264648 0.05782165
vn -0.809306 -0.4169553 -0.4137294
vn -0.809306 0.3348132 0.4826218
vn 0.8211529 -0.3388495 -0.4592264
vn -0.7897795 -0.5126349 -0.3368289
vn 0.03423679 -0.996891 0.0709656
vn 0.03423679 -0.2412172 0.9698671
vn -0.7897795 0.2410862 0.5640264
vn 0.8211529 0.3914399 0.4153103
vn -0.1805542 0.2488968 -0.9515517
vn -0.1805542 0.9811388 -0.06904218
vn -0.8190693 -0.4677241 -0.3322043
vn 0.1201257 -0.9927588 0
vn 0.3368968 -0.9226905 -0.1874641
vn -0.8190693 0.2469442 0.5178263
vn 0.1201532 -0.2041169 0.9715449
vn 0.3368968 0.02629519 0.9411743
vn -0.3816767 0.9186542 0.1019675
vn -0.3816767 0.05167961 -0.92285
vn 0.3290862 0.6804315 0.6547635
vn 0.666894 0.7409635 0.07890238
vn 0.666894 0.04386902 -0.7438601
vn 0.3290862 -0.5263035 -0.7840325
vn 0.8387268 0.3719134 0.397766
vn 0.8387268 -0.3290862 -0.4338659
vn 0.5848829 -0.2158328 -0.7818748
vn 0.4560082 0.1141642 -0.8826228
vn -0.6804315 0.004816055 -0.7327959
vn 0.5848829 0.7331529 0.3469854
vn 0.4560082 0.8893645 0.03297526
vn -0.6804315 0.721437 0.1286144
vn -0.6355206 -0.7176627 -0.2847346
vn -0.6355206 0.1551698 0.7563305
vn 0.809437 0.3348132 0.4824021
vn 0.809437 -0.4169553 -0.413473
vn -0.05363226 -0.2607437 0.9639172
vn -0.05363226 -0.9949384 0.08497778
vn 0.3212757 -0.9461222 0.0404309
vn -0.6530944 -0.3388495 -0.6772361
vn -0.7507267 -0.6161252 -0.2383258
vn -0.7507267 0.1239275 0.6488847
vn -0.6530944 0.6081836 0.4511988
vn 0.3212757 -0.2021643 0.9251549
vn 0.7078995 -0.5829302 -0.3988367
vn 0.7078995 0.2899023 0.6440769
vn -0.6745735 0.4754037 0.5647494
vn -0.6745735 -0.473582 -0.5662779
vn 0.7352365 -0.4364818 -0.5185662
vn 0.7352365 0.4363507 0.5186765
vn 0.4071921 0.1864121 -0.8941169
vn 0.4071921 0.9127963 -0.03158485
vn -0.6999578 -0.07524234 -0.7102095
vn -0.6999578 0.6862894 0.1976507
vn 0.5848829 -0.7332839 -0.3467085
vn -0.7858742 -0.4833453 -0.3857188
vn 0.1260111 -0.9871278 0.09848828
vn 0.1260111 -0.2724596 0.95388
vn -0.7858742 0.2977129 0.5420043
vn 0.5848829 0.2157018 0.781911
vn -0.6355206 0.7175317 0.2850647
vn -0.6355206 -0.1553008 -0.7563037
vn 0.7918633 -0.1826379 -0.5827487
vn 0.7918633 0.5417936 0.2818018
vn -0.2274177 0.2078912 -0.9513477
vn -0.2274177 0.9733282 -0.03022122
vn -0.6921474 -0.6961836 -0.1904216
vn 0.1748273 0.02629519 -0.984248
vn -0.4207296 0.1825068 -0.8886382
vn -0.4207296 0.9069383 -0.02120091
vn 0.1748273 0.9733282 0.1485517
vn -0.6921474 0.0673008 0.7186116
vn -0.1903174 -0.9793172 -0.06868123
vn -0.1903174 -0.1064847 0.9759305
vn -0.0009108186 0.9909021 0.1345817
vn -0.0009108186 0.04191637 -0.9991207
vn -0.0009108186 -0.9988437 -0.04806781
vn -0.0009108186 -0.1260111 0.9920284
vn 0.5985513 -0.01666301 -0.8009111
vn 0.6844677 -0.7137574 -0.148507
vn 0.6844677 0.02043724 0.7287566
vn 0.5985513 0.7858742 0.1553638
vn 0.1201532 0.1590751 -0.9799277
vn 0.1201413 0.9927568 0
vn 0.7371892 -0.6454148 -0.1999796
vn -0.5847518 -0.7332839 -0.3469295
vn -0.3582449 -0.9324538 0.04680374
vn -0.3582449 -0.1826379 0.9155894
vn -0.5847518 0.2157018 0.782009
vn 0.7371892 0.08877981 0.6698285
vn 0.6356516 -0.1553008 -0.7561935
vn 0.6356516 0.7175317 0.2847724
vn -0.809306 0.4168243 0.4138614
vn -0.809306 -0.3349442 -0.482531
vn 0.05376327 0.9948074 -0.08641682
vn 0.05376327 0.2606127 -0.9639453
vn 0.7371892 -0.1338217 -0.662302
vn -0.1746963 -0.9734593 -0.147845
vn 0.3739971 -0.9265958 0.03932407
vn 0.3739971 -0.1943537 0.9068367
vn -0.1746963 -0.0264262 0.9842677
vn 0.7371892 0.6296626 0.2451064
vn 0.2353593 0.1122116 -0.965409
vn 0.2353593 0.9694229 0.06946348
vn -0.0009108186 -0.04204738 0.9991152
vn -0.0009108186 -0.9910331 -0.1336136
vn 0.006899774 0.1239275 -0.9922673
vn 0.006899774 0.9987127 0.05025325
vn -0.5984204 0.04386902 -0.7999803
vn -0.5984204 0.7956375 0.09409586
vn -0.5496042 -0.8348215 -0.03175424
vn -0.5496042 -0.1025794 0.8291035
vn -0.7351055 -0.4345291 -0.5203886
vn 0.6747046 -0.03033149 -0.7374644
vn -0.4558772 0.1571225 -0.8760642
vn -0.4558772 0.8893645 -0.03473924
vn 0.6747046 0.7194843 0.1646695
vn -0.7351055 0.4363507 0.5188621
vn 0.6747046 0.473451 0.5662313
vn 0.6747046 -0.4755347 -0.5644825
vn -0.4558772 -0.8894955 0.03120515
vn -0.4558772 -0.1553008 0.876389
vn 0.6747046 -0.721568 -0.155285
vn 0.6747046 0.03020048 0.7374698
vn 0.7977211 -0.2607437 -0.5437405
vn -0.06144285 0.2449915 -0.9675763
vn -0.8171166 -0.4150026 -0.4001166
vn 0.7977211 0.4910249 0.3500508
vn -0.06144285 0.9948074 -0.08113627
vn -0.8171166 0.3191921 0.4800384
vn 0.1513955 -0.9851751 0.08068063
vn 0.1513955 -0.2509804 0.9560796
g Terror_Nun_Yustina_Halo_0
f 3/3/3 2/2/2 1/1/1
f 1/1/1 2/2/2 4/4/4
f 2/2/2 3/3/3 5/5/5
f 2/2/2 5/5/5 4/4/4
f 4/4/4 5/5/5 6/6/6
f 3/3/3 6/6/6 5/5/5
f 1/1/1 4/4/4 7/7/7
f 7/7/7 4/4/4 6/6/6
f 8/8/8 1/1/1 7/7/7
f 8/8/8 3/3/3 1/1/1
f 8/8/8 7/7/7 9/9/9
f 9/9/9 7/7/7 6/6/6
f 10/10/10 8/8/8 9/9/9
f 3/3/3 8/8/8 10/10/10
f 10/10/10 9/9/9 11/11/11
f 11/11/11 9/9/9 6/6/6
f 3/3/3 10/10/10 12/12/12
f 12/12/12 10/10/10 11/11/11
f 3/3/3 13/13/13 6/6/6
f 12/12/12 13/13/13 3/3/3
f 6/6/6 14/14/14 11/11/11
f 13/13/13 14/14/14 6/6/6
f 12/12/12 15/15/15 13/13/13
f 13/13/13 16/16/16 14/14/14
f 15/15/15 16/16/16 13/13/13
f 16/16/16 17/17/17 14/14/14
f 16/16/16 15/15/15 17/17/17
f 14/14/14 17/17/17 18/18/18
f 11/11/11 14/14/14 18/18/18
f 15/15/15 18/18/18 17/17/17
f 19/19/19 15/15/15 12/12/12
f 15/15/15 19/19/19 18/18/18
f 11/11/11 18/18/18 20/20/20
f 12/12/12 11/11/11 20/20/20
f 19/19/19 20/20/20 18/18/18
f 19/19/19 12/12/12 20/20/20
f 23/23/23 22/22/22 21/21/21
f 23/23/23 21/21/21 24/24/24
f 23/23/23 24/24/24 25/25/25
f 22/22/22 23/23/23 25/25/25
f 21/21/21 26/26/26 24/24/24
f 24/24/24 26/26/26 25/25/25
f 22/22/22 27/27/27 21/21/21
f 21/21/21 27/27/27 26/26/26
f 26/26/26 28/28/28 25/25/25
f 22/22/22 25/25/25 28/28/28
f 27/27/27 22/22/22 28/28/28
f 27/27/27 28/28/28 26/26/26
f 31/31/31 30/30/30 29/29/29
f 29/29/29 30/30/30 32/32/32
f 30/30/30 31/31/31 33/33/33
f 30/30/30 33/33/33 32/32/32
f 32/32/32 33/33/33 34/34/34
f 31/31/31 34/34/34 33/33/33
f 29/29/29 32/32/32 35/35/35
f 35/35/35 32/32/32 34/34/34
f 36/36/36 31/31/31 29/29/29
f 36/36/36 29/29/29 35/35/35
f 37/37/37 35/35/35 34/34/34
f 36/36/36 35/35/35 38/38/38
f 37/37/37 38/38/38 35/35/35
f 39/39/39 36/36/36 38/38/38
f 39/39/39 38/38/38 37/37/37
f 36/36/36 39/39/39 40/40/40
f 31/31/31 36/36/36 40/40/40
f 40/40/40 39/39/39 37/37/37
f 41/41/41 37/37/37 34/34/34
f 40/40/40 37/37/37 41/41/41
f 42/42/42 31/31/31 40/40/40
f 31/31/31 42/42/42 34/34/34
f 42/42/42 40/40/40 41/41/41
f 42/42/42 41/41/41 34/34/34
f 45/45/45 44/44/44 43/43/43
f 43/43/43 44/44/44 46/46/46
f 44/44/44 45/45/45 47/47/47
f 44/44/44 47/47/47 46/46/46
f 45/45/45 48/48/48 47/47/47
f 46/46/46 47/47/47 48/48/48
f 45/45/45 49/49/49 48/48/48
f 49/49/49 45/45/45 43/43/43
f 50/50/50 46/46/46 48/48/48
f 49/49/49 50/50/50 48/48/48
f 43/43/43 46/46/46 51/51/51
f 51/51/51 46/46/46 50/50/50
f 49/49/49 43/43/43 52/52/52
f 52/52/52 43/43/43 51/51/51
f 53/53/53 51/51/51 50/50/50
f 52/52/52 51/51/51 53/53/53
f 54/54/54 49/49/49 52/52/52
f 49/49/49 54/54/54 50/50/50
f 54/54/54 52/52/52 53/53/53
f 54/54/54 53/53/53 50/50/50
f 57/57/57 56/56/56 55/55/55
f 57/57/57 55/55/55 58/58/58
f 57/57/57 58/58/58 59/59/59
f 56/56/56 57/57/57 59/59/59
f 55/55/55 60/60/60 58/58/58
f 58/58/58 60/60/60 59/59/59
f 55/55/55 61/61/61 60/60/60
f 56/56/56 61/61/61 55/55/55
f 60/60/60 62/62/62 59/59/59
f 61/61/61 62/62/62 60/60/60
f 56/56/56 59/59/59 63/63/63
f 59/59/59 62/62/62 63/63/63
f 56/56/56 64/64/64 61/61/61
f 64/64/64 56/56/56 63/63/63
f 61/61/61 65/65/65 62/62/62
f 64/64/64 65/65/65 61/61/61
f 65/65/65 66/66/66 62/62/62
f 62/62/62 66/66/66 63/63/63
f 65/65/65 67/67/67 66/66/66
f 67/67/67 65/65/65 64/64/64
f 63/63/63 66/66/66 68/68/68
f 67/67/67 68/68/68 66/66/66
f 69/69/69 67/67/67 64/64/64
f 67/67/67 69/69/69 68/68/68
f 70/70/70 63/63/63 68/68/68
f 64/64/64 63/63/63 70/70/70
f 69/69/69 64/64/64 70/70/70
f 69/69/69 70/70/70 68/68/68
f 73/73/73 72/72/72 71/71/71
f 73/73/73 71/71/71 74/74/74
f 73/73/73 74/74/74 75/75/75
f 72/72/72 73/73/73 75/75/75
f 74/74/74 76/76/76 75/75/75
f 71/71/71 76/76/76 74/74/74
f 72/72/72 75/75/75 77/77/77
f 76/76/76 77/77/77 75/75/75
f 72/72/72 78/78/78 71/71/71
f 78/78/78 72/72/72 77/77/77
f 71/71/71 79/79/79 76/76/76
f 79/79/79 71/71/71 78/78/78
f 77/77/77 76/76/76 80/80/80
f 79/79/79 80/80/80 76/76/76
f 81/81/81 79/79/79 78/78/78
f 79/79/79 81/81/81 80/80/80
f 82/82/82 77/77/77 80/80/80
f 78/78/78 77/77/77 82/82/82
f 81/81/81 78/78/78 82/82/82
f 81/81/81 82/82/82 80/80/80
f 85/85/85 84/84/84 83/83/83
f 85/85/85 83/83/83 86/86/86
f 85/85/85 86/86/86 87/87/87
f 84/84/84 85/85/85 87/87/87
f 83/83/83 88/88/88 86/86/86
f 86/86/86 88/88/88 87/87/87
f 83/83/83 89/89/89 88/88/88
f 84/84/84 89/89/89 83/83/83
f 88/88/88 90/90/90 87/87/87
f 89/89/89 90/90/90 88/88/88
f 84/84/84 87/87/87 91/91/91
f 91/91/91 87/87/87 90/90/90
f 89/89/89 84/84/84 92/92/92
f 92/92/92 84/84/84 91/91/91
f 89/89/89 93/93/93 90/90/90
f 93/93/93 89/89/89 92/92/92
f 94/94/94 91/91/91 90/90/90
f 93/93/93 94/94/94 90/90/90
f 93/93/93 92/92/92 95/95/95
f 93/93/93 96/96/96 94/94/94
f 95/95/95 96/96/96 93/93/93
f 96/96/96 97/97/97 94/94/94
f 96/96/96 95/95/95 97/97/97
f 94/94/94 97/97/97 98/98/98
f 94/94/94 98/98/98 91/91/91
f 95/95/95 98/98/98 97/97/97
f 92/92/92 99/99/99 95/95/95
f 95/95/95 99/99/99 98/98/98
f 98/98/98 100/100/100 91/91/91
f 92/92/92 91/91/91 100/100/100
f 99/99/99 92/92/92 100/100/100
f 99/99/99 100/100/100 98/98/98
f 103/103/103 102/102/102 101/101/101
f 103/103/103 101/101/101 104/104/104
f 103/103/103 104/104/104 105/105/105
f 102/102/102 103/103/103 105/105/105
f 101/101/101 106/106/106 104/104/104
f 104/104/104 106/106/106 105/105/105
f 101/101/101 107/107/107 106/106/106
f 102/102/102 107/107/107 101/101/101
f 106/106/106 108/108/108 105/105/105
f 107/107/107 108/108/108 106/106/106
f 102/102/102 105/105/105 109/109/109
f 105/105/105 108/108/108 109/109/109
f 102/102/102 110/110/110 107/107/107
f 110/110/110 102/102/102 109/109/109
f 108/108/108 111/111/111 109/109/109
f 110/110/110 109/109/109 111/111/111
f 110/110/110 112/112/112 107/107/107
f 107/107/107 112/112/112 108/108/108
f 112/112/112 110/110/110 111/111/111
f 112/112/112 111/111/111 108/108/108
f 115/115/115 114/114/114 113/113/113
f 115/115/115 113/113/113 116/116/116
f 115/115/115 116/116/116 117/117/117
f 114/114/114 115/115/115 117/117/117
f 113/113/113 118/118/118 116/116/116
f 116/116/116 118/118/118 117/117/117
f 113/113/113 119/119/119 118/118/118
f 114/114/114 119/119/119 113/113/113
f 118/118/118 120/120/120 117/117/117
f 119/119/119 120/120/120 118/118/118
f 114/114/114 117/117/117 121/121/121
f 117/117/117 120/120/120 121/121/121
f 114/114/114 122/122/122 119/119/119
f 122/122/122 114/114/114 121/121/121
f 119/119/119 123/123/123 120/120/120
f 122/122/122 123/123/123 119/119/119
f 123/123/123 124/124/124 120/120/120
f 120/120/120 124/124/124 121/121/121
f 123/123/123 125/125/125 124/124/124
f 123/123/123 122/122/122 125/125/125
f 124/124/124 126/126/126 121/121/121
f 125/125/125 126/126/126 124/124/124
f 122/122/122 127/127/127 125/125/125
f 125/125/125 127/127/127 126/126/126
f 126/126/126 128/128/128 121/121/121
f 122/122/122 121/121/121 128/128/128
f 127/127/127 122/122/122 128/128/128
f 127/127/127 128/128/128 126/126/126
f 131/131/131 130/130/130 129/129/129
f 131/131/131 129/129/129 132/132/132
f 131/131/131 132/132/132 133/133/133
f 130/130/130 131/131/131 133/133/133
f 132/132/132 134/134/134 133/133/133
f 129/129/129 134/134/134 132/132/132
f 130/130/130 133/133/133 135/135/135
f 134/134/134 135/135/135 133/133/133
f 130/130/130 136/136/136 129/129/129
f 136/136/136 130/130/130 135/135/135
f 129/129/129 137/137/137 134/134/134
f 129/129/129 136/136/136 137/137/137
f 134/134/134 138/138/138 135/135/135
f 137/137/137 138/138/138 134/134/134
f 136/136/136 139/139/139 137/137/137
f 137/137/137 139/139/139 138/138/138
f 138/138/138 140/140/140 135/135/135
f 136/136/136 135/135/135 140/140/140
f 139/139/139 136/136/136 140/140/140
f 139/139/139 140/140/140 138/138/138
f 143/143/143 142/142/142 141/141/141
f 141/141/141 142/142/142 144/144/144
f 142/142/142 143/143/143 145/145/145
f 142/142/142 145/145/145 144/144/144
f 143/143/143 146/146/146 145/145/145
f 144/144/144 145/145/145 146/146/146
f 147/147/147 143/143/143 141/141/141
f 143/143/143 147/147/147 146/146/146
f 148/148/148 144/144/144 146/146/146
f 141/141/141 144/144/144 148/148/148
f 147/147/147 141/141/141 148/148/148
f 147/147/147 148/148/148 146/146/146
